<?xml version="1.0" encoding="utf-8"?>
<!-- Generator: Adobe Illustrator 27.8.1, SVG Export Plug-In . SVG Version: 6.00 Build 0)  -->
<svg version="1.1" id="Слой_1" xmlns="http://www.w3.org/2000/svg" xmlns:xlink="http://www.w3.org/1999/xlink" x="0px" y="0px"
	 viewBox="0 0 1000 1000" style="enable-background:new 0 0 1000 1000;" xml:space="preserve">
<style type="text/css">
	.st0{fill:#AFB8FB;}
	.st1{fill:#221857;}
	.st2{fill:#FFFFFF;}
</style>
<g>
	<path class="st0" d="M995,499.98c0,260.4-201.09,473.84-456.46,493.51c-12.72,0.98-220.84-289.58-233.81-289.58
		c-236.21,0-131.07,14.6-287.86-95.71C9.1,573.37,5,537.16,5,499.98C5,226.61,226.62,5,500,5S995,226.61,995,499.98z"/>
	<g>
		<path class="st1" d="M727.56,414.98l-40.65,240.76l-20.18,2.85l42.35-252.42C715.34,409.02,721.31,411.85,727.56,414.98z"/>
		<path class="st1" d="M709.08,406.17c-6.25-2.84-12.51-5.4-18.48-7.68l-1.71,9.95l-40.65,240.76l-1.99,11.94l20.47-2.55l20.18-2.85
			l40.65-240.76C721.31,411.85,715.34,409.02,709.08,406.17z"/>
	</g>
	<path class="st2" d="M749.15,403.93v0.24l-3.56,20.75l-38.77,229.55l-3.21,18.85l-12.56,1.66l-48.03,6.4l-60.35,8.06
		c-0.24,11.98-0.71,24.78-2.37,39.72c-1.78,33.08-9.61,150.35-36.64,263.93c-6.88,0.59-13.76,1.07-20.63,1.42
		c-7.59,0.36-15.3,0.47-23.01,0.47C273.08,995,81.7,842.28,23.24,633.96c-1.66-6.4-3.32-12.81-4.86-19.21
		c52.88-5.22,90.82-13.4,110.98-23.95c139.8-72.44,221.85-260.73,222.68-262.63c6.88-16.6,32.49-71.97,66.99-78.02l1.66-0.36h1.66
		c31.54,0,46,34.03,57.15,89.76l55.26,4.74c9.61-16.48,28.69-41.74,54.66-41.74c32.61,0,49.92,38.06,57.75,60.23
		c10.32,2.96,27.15,8.18,46.72,15.89c5.93,2.25,12.22,4.74,18.61,7.59c7.71,3.32,15.66,7,23.71,11.03c0,0.12,0.12,0.12,0.12,0.12
		l6.88,3.55L749.15,403.93z"/>
	<path class="st1" d="M792.09,677.63l-10.8,11.65l-15.63,0.85l-73.06,4.26h-0.57l-2.84,0.29l-87.55,11.94
		c-0.28,7.39-0.85,15.07-1.71,23.6c-1.99,34.67-9.67,148.09-35.82,260.66c-6.82,0.85-13.64,1.71-20.47,2.28
		c-6.82,0.57-13.65,1.13-20.75,1.42c22.46-91.24,33.83-192.72,38.09-267.48c2.27-21.03,2.27-38.38,2.27-54.86l83-11.09l20.47-2.55
		l20.18-2.85l40.65-240.76c-6.25-3.13-12.22-5.97-18.48-8.81c-6.25-2.84-12.51-5.4-18.48-7.68c-32.69-13.07-58.56-19.61-58.56-19.61
		c-13.93-42.92-29-56.85-42.64-56.85c-23.88,0-43.49,42.64-43.49,42.64l-83-6.82c-11.65-65.09-24.16-88.41-40.65-88.41
		c-26.44,4.55-52.3,66.52-52.3,66.52S286.1,531.52,138.57,607.99c-24.16,12.79-66.52,21.03-115.41,25.86
		c-1.71-6.25-3.13-12.79-4.83-19.04c-1.42-6.26-2.84-12.8-3.98-19.33c68.22-6.54,95.8-16.48,106.03-22.17
		c133.32-69.08,212.91-251,213.48-252.42c12.79-30.42,40.36-82.71,81.87-89.82l3.13-0.85h3.41c46.33,0,63.96,48.61,73.62,90.96
		l28.71,2.56c13.36-19.05,34.97-40.65,64.81-40.65c40.36,0,61.97,36.95,72.77,63.67c9.38,3.13,21.6,7.11,34.96,12.23
		c14.78,5.4,31.27,12.51,47.76,20.75c0.28,0,0.28,0.28,0.28,0.28l25.3,14.21c52.59,32.97,81.58,76.18,82.15,123.93
		C853.49,533.23,854.91,609.69,792.09,677.63z"/>
	<circle class="st1" cx="500" cy="452.25" r="29.1"/>
</g>
</svg>
