<?xml version="1.0" encoding="utf-8"?>
<!-- Generator: Adobe Illustrator 27.8.1, SVG Export Plug-In . SVG Version: 6.00 Build 0)  -->
<svg version="1.1" id="Слой_1" xmlns="http://www.w3.org/2000/svg" xmlns:xlink="http://www.w3.org/1999/xlink" x="0px" y="0px"
	 viewBox="0 0 1000 210" style="enable-background:new 0 0 1000 210;" xml:space="preserve">
<style type="text/css">
	.st0{fill:#6699F2;}
	.st1{fill:#221857;}
	.st2{fill:#FFFFFF;}
	.st3{fill:#111111;}
</style>
<path class="st0" d="M204.96,105c0,52.6-40.62,95.71-92.2,99.68c-2.57,0.2-44.61-58.49-47.23-58.49c-47.71,0-26.47,2.95-58.14-19.33
	C5.83,119.82,5,112.51,5,105C5,49.78,49.76,5.02,104.98,5.02S204.96,49.78,204.96,105z"/>
<g>
	<path class="st1" d="M150.94,87.83l-8.21,48.63l-4.08,0.57l8.55-50.99C148.47,86.62,149.68,87.2,150.94,87.83z"/>
	<path class="st1" d="M147.21,86.05c-1.26-0.57-2.53-1.09-3.73-1.55l-0.34,2.01l-8.21,48.63l-0.4,2.41l4.13-0.52l4.08-0.57
		l8.21-48.63C149.68,87.2,148.47,86.62,147.21,86.05z"/>
</g>
<path class="st2" d="M155.3,85.6v0.05l-0.72,4.19l-7.83,46.37l-0.65,3.81l-2.54,0.34l-9.7,1.29l-12.19,1.63
	c-0.05,2.42-0.14,5.01-0.48,8.02c-0.36,6.68-1.94,30.37-7.4,53.31c-1.39,0.12-2.78,0.22-4.17,0.29c-1.53,0.07-3.09,0.1-4.65,0.1
	c-45.84,0-84.49-30.85-96.3-72.93c-0.33-1.29-0.67-2.59-0.98-3.88c10.68-1.05,18.34-2.71,22.42-4.84
	c28.24-14.63,44.81-52.66,44.98-53.05c1.39-3.35,6.56-14.54,13.53-15.76l0.34-0.07h0.34c6.37,0,9.29,6.87,11.54,18.13L112,73.55
	c1.94-3.33,5.8-8.43,11.04-8.43c6.59,0,10.08,7.69,11.66,12.17c2.08,0.6,5.48,1.65,9.44,3.21c1.2,0.45,2.47,0.96,3.76,1.53
	c1.56,0.67,3.16,1.41,4.79,2.23c0,0.02,0.02,0.02,0.02,0.02l1.39,0.72L155.3,85.6z"/>
<path class="st1" d="M163.98,140.88l-2.18,2.35l-3.16,0.17l-14.76,0.86h-0.11l-0.57,0.06l-17.68,2.41
	c-0.06,1.49-0.17,3.04-0.34,4.77c-0.4,7-1.95,29.91-7.23,52.65c-1.38,0.17-2.76,0.34-4.13,0.46c-1.38,0.11-2.76,0.23-4.19,0.29
	c4.54-18.43,6.83-38.93,7.69-54.03c0.46-4.25,0.46-7.75,0.46-11.08l16.77-2.24l4.13-0.52l4.08-0.57l8.21-48.63
	c-1.26-0.63-2.47-1.21-3.73-1.78c-1.26-0.57-2.53-1.09-3.73-1.55c-6.6-2.64-11.83-3.96-11.83-3.96c-2.81-8.67-5.86-11.48-8.61-11.48
	c-4.82,0-8.78,8.61-8.78,8.61l-16.77-1.38c-2.35-13.15-4.88-17.86-8.21-17.86c-5.34,0.92-10.56,13.44-10.56,13.44
	s-16.94,39.5-46.74,54.95c-4.88,2.58-13.44,4.25-23.31,5.22c-0.34-1.26-0.63-2.58-0.98-3.85c-0.29-1.26-0.57-2.58-0.8-3.91
	c13.78-1.32,19.35-3.33,21.42-4.48c26.93-13.95,43-50.7,43.12-50.99c2.58-6.14,8.15-16.71,16.54-18.14l0.63-0.17h0.69
	c9.36,0,12.92,9.82,14.87,18.37l5.8,0.52c2.7-3.85,7.06-8.21,13.09-8.21c8.15,0,12.52,7.46,14.7,12.86
	c1.89,0.63,4.36,1.44,7.06,2.47c2.99,1.09,6.32,2.53,9.65,4.19c0.06,0,0.06,0.06,0.06,0.06l5.11,2.87
	c10.62,6.66,16.48,15.39,16.59,25.03C176.38,111.71,176.66,127.16,163.98,140.88z"/>
<circle class="st1" cx="104.98" cy="95.36" r="5.88"/>
<g>
	<path class="st3" d="M501.64,93.24c-8.27-17.8-30.37-20.1-43.06-5.11c-0.4,0.52-0.23,1.49-0.34,2.3c-0.69-0.46-1.32-0.86-2.01-1.32
		V78.19c-9.7,3.1-18.72,5.97-26.07,8.32c1.21,7.29,3.33,13.84,3.16,20.27c-0.69,24.06,2.99,48.29-2.7,72.06h28.13
		c-1.03-9.93-2.07-19.64-3.16-30.2c17.8,7.12,31.52,4.65,40.88-7.46C507.84,126.42,509.44,109.89,501.64,93.24z M478.27,138.77
		c-1.44,7.35-6.72,10.51-12,9.59c-5.51-0.92-9.7-6.54-9.82-13.43v-0.06c-0.11-5.8,0-11.65,0-17.51v-16.94
		c-0.06-5.45,2.53-9.13,7.69-10.62c5.23-1.55,9.88,0.17,12.23,4.88c2.18,4.48,4.36,9.53,4.36,14.35
		C480.79,118.96,480.1,129.01,478.27,138.77z"/>
	<path class="st3" d="M729.8,153.04v-12.45c-6.16,7.67-13.22,12.43-23.05,12.31c-11.62-0.14-20.49-7.88-21.21-19.44
		c-0.57-9.11,0.13-18.29-0.5-27.39c-0.42-6.18-2.16-12.27-3.51-19.47c7.52-2.41,16.6-5.33,26.36-8.46c0,9.75-0.02,18.86,0,27.96
		c0.02,7.85-0.22,15.73,0.2,23.56c0.35,6.49,4.77,10.21,10.77,10.05c6.3-0.19,10.61-4.32,10.72-10.82
		c0.17-9.32,0.42-18.67-0.2-27.95c-0.3-4.54-2.47-8.96-4.02-14.19c8.25-2.62,17.35-5.52,27.24-8.67c0,17.03-0.29,33.12,0.13,49.18
		c0.18,6.7,1.84,13.35,2.93,20.77C748.34,149.45,739.43,151.18,729.8,153.04z"/>
	<path class="st3" d="M418.33,138.42c-0.11-10.91,0.23-21.88-0.11-32.84c-0.46-13.67-7.98-23.14-20.15-26.07
		c-15.44-3.79-30.72,1.55-37.2,13.09c-0.98,1.78-1.55,3.85-2.35,5.8c8.73-9.7,18.26-12.8,27.62-8.44
		c7.58,3.56,10.74,11.94,8.61,23.31c-1.38,0.06-2.81,0.11-4.25,0.29c-9.59,1.03-18.89,2.93-26.58,9.24
		c-6.32,5.22-8.78,13.03-6.26,20.1c2.18,6.14,7.92,9.59,16.19,9.99c8.84,0.4,15.96-2.64,21.07-10.16
		c8.1,12.75,23.94,13.78,31.69,1.9C419.76,145.66,418.38,144.62,418.33,138.42z M395.24,135.44c-0.17,4.02-3.1,6.09-6.95,6.43
		c-3.73,0.29-6.14-1.61-7.35-5.17c-3.33-9.99,2.93-18.77,14.41-19.64c0,3.5,0.06,7,0.06,10.51
		C395.42,130.15,395.36,132.85,395.24,135.44z"/>
	<path class="st3" d="M908.31,134.35c-10.22-4.36-17.57-16.42-17.11-28.59h46.45c-0.63-12.98-7.06-21.88-18.2-25.55
		c-10.28-3.45-20.27-2.35-29.57,3.33c-13.66,8.44-19.98,24.8-16.59,42.72c2.76,14.99,15.22,25.72,30.72,26.58
		c16.19,0.86,29.28-7.87,33.7-22.56c0.29-0.98,0.17-2.13,0.29-3.73C928.4,136.53,918.99,138.88,908.31,134.35z M901.47,82.79
		c0.34-0.06,0.69-0.06,1.03-0.06c0.57,0,1.15,0.06,1.72,0.17c2.07,0.34,3.85,1.26,5.4,2.76c0.46,0.46,0.98,1.03,1.38,1.61
		c0.46,0.57,0.92,1.26,1.26,1.95c0.34,0.69,0.69,1.44,1.03,2.24c0.17,0.4,0.34,0.8,0.46,1.26c0.92,2.64,1.49,5.86,1.72,9.47h-24.4
		C889.82,91.17,894.07,83.36,901.47,82.79z"/>
	<path class="st3" d="M275.1,150.56c5.16-27.55,1.8-55.26,2.4-82.83c0.04-2.1-0.72-4.33-1.51-6.33c-0.77-1.98-2.05-3.76-3.35-6.06
		c9.23-2.97,18.23-5.87,28.06-9.02v6.27c0,24.29-0.18,48.58,0.1,72.86c0.1,8.26,1.37,16.5,2.13,25.12H275.1z"/>
	<path class="st3" d="M646.14,150.42c5.14-27.42,1.76-55.14,2.37-82.72c0.06-2.1-0.73-4.32-1.51-6.33
		c-0.77-1.97-2.04-3.75-3.34-6.04c9.25-2.97,18.27-5.86,28.06-9.01v6.3c0,24.1-0.18,48.21,0.1,72.31c0.1,8.44,1.32,16.87,2.05,25.49
		H646.14z"/>
	<path class="st3" d="M579.94,80.88c-16.3,20.57-23.04,45.76-34.64,68.51c-2.65,5.2-4.96,10.61-8.01,15.57
		c-6.18,10.09-18,15.28-30.38,13.68v-16.47c6.19-0.47,12.35-0.86,18.47-1.46c2.16-0.21,4.35-0.75,6.39-1.52
		c7.85-2.97,9.02-5.97,5.43-13.43c-6.19-12.82-12.22-25.72-18.64-38.43c-4.49-8.9-9.55-17.53-14.53-26.57h35.6
		c-3.83,6.93-2.2,13.26,0.83,19.6c3.82,8.02,7.44,16.14,11.67,25.36c4.62-10.72,9.28-20.03,12.56-29.79
		c1.49-4.43,0.25-9.75,0.25-15.05H579.94z"/>
	<path class="st3" d="M819.34,130.61c-0.52,10.42-6.39,16.81-15.97,19.98c-12.56,4.15-24.97,2.53-37.15-1.78
		c-1.2-0.43-2.71-2.14-2.75-3.3c-0.28-6.46-0.13-12.94,0.94-19.69c1.22,2.3,2.36,4.66,3.71,6.89c4.77,7.9,10.87,14.31,20.26,16.5
		c8.61,2.03,15.37-2.97,15.2-10.95c-0.09-4.57-2.47-7.67-6.55-9.22c-4.25-1.62-8.75-2.61-13.05-4.11
		c-3.62-1.26-7.33-2.48-10.64-4.34c-15.17-8.57-15.11-29.49,0.19-37.97c12.82-7.11,25.89-4.56,38.76,0.23
		c0.87,0.32,1.81,1.85,1.84,2.84c0.17,6.11,0.09,12.24,0.09,18.71c-4.6-5.97-8.12-11.88-12.97-16.36c-3.38-3.13-8.39-5.1-13.01-6.17
		c-4.62-1.06-8.65,1.39-10.3,6.24c-1.71,4.99,0.04,9.47,5.02,11.97c3.39,1.71,7.17,2.68,10.76,4.02c4.27,1.6,8.65,2.99,12.76,4.92
		C815.52,113.31,819.85,120.62,819.34,130.61z"/>
	<path class="st3" d="M995,78.46v19.71c-4.26,0-8.12-0.23-11.94,0.06c-8.74,0.64-12.93,4.49-13.03,13.11
		c-0.15,13.02-2.15,26.26,3.45,39.14h-29.5c3.79-21.16,5.66-42.2-1.18-63.77c7.95-2.54,16.97-5.42,26.85-8.57v18.58
		C974.49,85.36,981.74,78.24,995,78.46z"/>
	<path class="st3" d="M638.66,127.99c-0.68,6.68-3.91,12.86-9.65,17.63c-9.96,8.28-21.34,9.22-33.12,4.97
		c-11.67-4.21-18.39-12.98-20.38-25.08c-2.59-15.65,1.76-29.12,14.54-38.93c13.3-10.22,28.18-10.07,43.34-4.76
		c1.31,0.45,2.88,2.42,2.94,3.76c0.3,6.51,0.13,13.03,0.13,20.42c-4.44-6.33-7.77-12.01-12.01-16.9
		c-5.36-6.16-12.34-9.55-20.63-6.37c-8.15,3.14-10.21,10.37-10.71,18.21c-0.57,9.02,1.32,17.43,6.81,24.81
		c6.41,8.65,17.21,12.93,26.59,9.67C630.89,133.91,634.6,130.55,638.66,127.99z"/>
	<path class="st3" d="M873.01,139.57c-1.36,2.37-2.01,3.94-3.02,5.23c-5.53,7.01-17.03,9.95-26.64,6.9
		c-8.7-2.77-14.68-10.11-15-19.57c-0.39-11.49-0.17-23-0.23-34.5c-0.04-7.38-0.62-8.63-5.25-12.73c9.04-6.29,18.25-12.69,27.62-19.2
		V80.3h20.1c0.37,4.76-1.67,6-5.6,5.77c-4.52-0.28-9.06-0.07-13.78-0.07c0,15.86-0.65,31.19,0.23,46.41
		C852.01,142.51,861.07,145.5,873.01,139.57z"/>
	<path class="st3" d="M353.11,149.32c-10.85,6.6-25.66,4.4-33.08-5.52c-5.46-7.3-10.27-15.1-15.04-22.88
		c-0.72-1.18-0.31-3.89,0.62-5.1c4.65-6.1,9.73-11.86,14.48-17.89c4.01-5.08,6.86-10.5,2.24-17.19h21.05
		c-6.6,5.99-13.73,12.51-20.92,18.97c-2.23,1.99-1.98,3.71-0.35,6.07c8.19,11.88,16.15,23.91,24.35,35.77
		C348.38,144.35,350.88,146.74,353.11,149.32z"/>
</g>
</svg>
